<?xml version="1.0" encoding="utf-8"?>
<!-- Generator: Adobe Illustrator 14.0.0, SVG Export Plug-In . SVG Version: 6.00 Build 43363)  -->
<!DOCTYPE svg PUBLIC "-//W3C//DTD SVG 1.1//EN" "http://www.w3.org/Graphics/SVG/1.1/DTD/svg11.dtd">
<svg version="1.1" id="Layer_1" xmlns="http://www.w3.org/2000/svg" xmlns:xlink="http://www.w3.org/1999/xlink" x="0px" y="0px"
	 width="494.423px" height="137.085px" viewBox="61.421 320.5 494.423 137.085"
	 enable-background="new 61.421 320.5 494.423 137.085" xml:space="preserve">
<g>
	<path fill="#E40712" d="M445.082,409.92c0-0.846,0.188-2.253,0.47-4.693c0.281-2.44,1.877-9.479,8.072-13.422
		c-0.282,0-0.751-0.188-1.032-0.188c-0.846,0-3.379-0.188-6.946,1.126c1.407-2.159,6.664-5.632,8.637-6.664
		c0.188-0.188,0.469-0.282,0.562-0.282c-2.252-7.228-7.039-13.141-13.798-16.614c-4.224-2.252-8.636-3.379-14.549-3.567l0,0H414.67
		c-9.479,0-13.799-0.188-17.178-0.845c-2.815-0.751-5.351-2.253-5.351-2.253l-0.751-0.469l0.188,0.845
		c0,0.282,0.751,6.665,8.354,12.296c1.408,1.126,2.533,2.159,2.533,5.82v34.261c0,3.66-0.75,4.692-2.438,5.633
		c-1.877,1.126-5.634,3.285-5.634,3.379l-1.312,0.75h30.882c8.635,0,14.08-1.407,19.898-5.351c1.127-0.751,2.16-1.596,3.004-2.253
		c-0.562-4.411,0.188-8.354,0.752-10.605C447.522,406.635,445.927,408.043,445.082,409.92z M425.371,410.576h-6.665v-30.412h6.665
		c8.729,0,13.703,5.538,13.703,15.206C439.074,405.133,434.1,410.576,425.371,410.576z M510.976,418.18
		c0.563-1.127,0.846-2.533,0.846-3.941c0-1.407-0.471-2.815-1.032-3.942l1.689,0.281c1.125,0.188,3.284,1.596,3.284,3.661
		C515.763,416.771,513.229,417.898,510.976,418.18z M543.641,419.588c-5.914,3.942-11.264,5.351-19.898,5.351h-0.281
		c1.407-1.689,2.158-3.941,2.158-6.194c0-3.286-1.596-6.195-4.13-8.167h3.661c8.729,0,13.703-5.537,13.703-15.206
		c0-9.762-4.975-15.206-13.703-15.206h-6.665v3.848c-1.032-0.188-1.877-0.281-2.815-0.281c-1.596,0-3.38,0.281-3.849,0.563
		c1.877-1.596,3.941-2.253,5.351-2.534c-6.195-1.408-12.015,2.159-12.859,3.097c0.751-1.596,2.158-3.003,3.098-3.942
		c-1.971,0.75-3.848,1.689-5.35,2.722v-2.534c0-3.849-1.033-4.787-2.535-5.82c-7.604-5.538-8.354-12.015-8.354-12.296l-0.188-0.845
		l0.751,0.469c0,0,2.533,1.689,5.35,2.252c3.286,0.751,7.791,0.845,17.178,0.845h11.827l0,0c5.913,0.282,10.325,1.314,14.549,3.567
		c9.574,4.975,15.206,14.643,15.206,25.907c0,6.946-2.253,13.704-6.194,18.491C548.334,415.927,546.175,417.898,543.641,419.588z
		 M513.791,407.948c-2.158,0-4.411,0.47-4.411,0.47c-0.47-0.47-3.285-2.535-4.506-2.816c2.253,2.441,1.596,4.976,1.033,5.82
		c-0.471,0.75-1.314,1.126-1.973,1.126c-0.562,0-1.126-0.188-1.688-0.562v-13.798c0.562-0.752,1.126-1.597,1.877-2.253
		c1.596-1.877,4.13-3.003,6.665-3.003c1.596,0,3.098,0.469,4.13,1.314l0.845,0.563l0.751-0.751c0.47-0.47,1.408-0.845,2.44-1.314
		v16.238C517.171,408.23,515.575,407.948,513.791,407.948z M510.976,388.8c-5.257-0.751-13.234,2.816-17.364,7.885
		c0.845-3.378,4.506-8.917,9.011-11.452c0,0-2.252,2.816-1.313,3.286c1.408,0.751,5.068-5.069,9.855-5.257
		c0,0-3.566,1.69-2.815,3.004c0.562,0.845,3.003-1.126,7.039-1.126c5.069,0,9.574,3.098,11.733,5.538
		c-3.566-1.033-10.138,0.751-12.108,2.44c-3.004-2.252-8.729-1.971-12.015,1.877c-4.13,4.693-6.664,10.138-7.321,11.827
		c-1.408-1.127-2.723-2.159-3.566-2.816c-0.751-0.562-1.408-0.845-2.158-1.126C493.892,397.342,501.776,389.175,510.976,388.8z
		 M455.971,372.937c-0.562-6.665,2.534-10.325,3.942-11.827c3.097-3.285,7.321-5.069,13.704-4.787
		c9.854,0.563,14.643,7.321,14.643,14.549c0,3.849-1.971,8.917-4.787,12.109c-0.188-0.188-0.469-0.469-0.562-0.563
		c-1.878-1.689-4.506-3.848-6.195-6.383c3.379-4.975,1.972-12.672-4.131-12.672c-3.848,0-6.945,3.942-5.631,8.729
		c-0.563,2.159-0.846,4.975-0.47,7.04c-4.411-2.253-5.819-5.256-6.665-7.885c-1.126,2.253-1.877,5.351-1.031,8.354
		C458.975,379.883,456.439,377.63,455.971,372.937z M458.505,384.952c-0.47,1.596-6.195,3.285-9.011,6.101
		c4.224-0.845,6.195-0.188,6.945,1.596c0.47,1.314-0.188,3.004-0.47,4.975c1.408-1.596,6.195-4.787,9.763-5.538
		c-0.846-0.282-3.004-0.751-3.85-0.751c2.534-3.004,8.167-3.942,11.266-3.285c-1.973-0.188-5.914,1.032-7.511,2.252
		c1.408,0.282,2.724,0.563,3.85,1.033c-1.878,0.751-4.225,3.003-5.069,5.35c2.441-1.688,7.322-1.313,8.166,2.254
		c0.564,2.439-1.125,4.506-1.971,4.975c0.751,0.188,2.44,0,3.098-0.469c-0.281,1.031-1.688,2.722-2.723,3.004
		c2.535,0,6.194-1.689,7.229-4.131c0,0-1.596,0.562-2.253-0.188c-0.751-0.751,0.282-3.849,0.282-3.849s-1.033,1.313-1.878,0.562
		c-0.845-0.845,0.282-3.661,0.751-4.224c-0.845-0.282-3.098-0.563-4.131-0.469c2.815-1.033,9.199-1.596,9.855-0.282
		c0.563,1.033-0.845,3.004-0.845,3.004c1.126-0.188,4.412,0,5.538,1.313c1.126,1.408,0.47,3.285,0.47,3.285
		c2.534-1.312,4.787-5.256,4.225-9.199c-0.282,0.845-1.408,2.159-2.534,2.44c0.188-1.314-0.846-1.971-1.689-2.252
		c0.469-2.44-0.562-5.538-4.131-8.917c-3.004-3.003-8.635-6.946-8.354-12.108c-0.846,1.126-1.597,4.412-0.751,6.195
		c2.439,2.816,7.603,5.914,8.917,10.701c-2.252-5.632-13.234-10.043-12.859-17.74c-1.408,1.408-2.253,6.946-1.127,9.762
		c2.159,1.314,3.943,3.379,4.225,5.351c-1.971-4.505-10.044-5.351-12.297-10.701c-0.562,1.971-0.281,4.412,0.846,5.914
		c0,0-1.972-0.751-6.194-0.563C455.783,380.821,458.787,383.356,458.505,384.952z M481.314,391.428
		c-2.441,0-3.099-1.877-3.661-3.849C480.469,388.8,481.314,391.428,481.314,391.428z M512.102,428.223
		c1.689,1.597,5.82,2.724,7.886,1.69c-1.313,2.253-7.229,5.351-12.672,3.942c-5.257-1.408-7.604-6.384-7.604-9.574
		c-2.534,2.534-1.878,6.477,0,8.166c-1.972-0.563-5.069-2.724-5.632-6.478c-0.47-3.285,1.407-7.04-1.972-10.044
		c-1.972-1.877-5.257-4.411-7.229-5.913c-4.224-3.285-2.722-5.819-3.565-7.51c-0.751-1.408-2.535-2.158-3.567-3.379
		c-1.126-1.314-1.032-3.098-0.47-4.13c-0.188,1.408,0.846,2.534,2.254,3.098c1.595,0.563,2.814,0.188,4.224,0.845
		c1.596,1.032,0.845,3.38,1.971,4.412c1.032,0.75,3.661-0.281,5.819,1.597c2.253,1.877,7.229,5.913,9.293,7.603
		c3.85,3.098,7.791-0.47,6.478-4.13c3.941,2.252,4.411,8.729,1.127,10.982c3.098,0.75,8.636-0.753,8.636-5.068
		c0-2.723-2.535-4.693-4.225-4.977c6.383-0.562,11.826,3.85,11.826,9.48C524.492,424.562,518.673,429.068,512.102,428.223z
		 M491.076,416.678c0.188,0.188,0.281,0.281,0.469,0.471c-3.379,6.945-9.762,15.769-21.87,15.769c-4.411,0-8.354-1.596-11.17-3.66
		c-1.032-0.751-1.878-1.596-2.534-2.534l0,0l0,0c-0.47-0.562-0.845-1.031-1.313-1.596c-0.562-0.751-1.032-0.751-1.314-0.282
		c-0.562,0.847,0.47,3.567,0.47,3.567c-9.573-9.011-4.692-22.246-4.505-22.811c0.562-1.688,0-1.971-0.562-1.688
		c-0.845,0.281-1.878,1.688-1.878,1.688c0.752-8.071,8.166-12.953,8.166-12.953l0.188,0.188c0.846,1.314-0.47,2.816-0.562,7.885
		c1.408-1.971,6.946-5.819,10.044-6.946c-1.032,1.314-1.878,3.098-1.878,5.82c0,0,2.254-2.534,5.068-2.534
		c0.752,0,1.407,0.188,1.973,0.47c-10.701,10.419-6.195,23.373,2.814,23.373c5.068,0,10.139-5.634,12.296-9.48
		C486.57,412.83,489.199,415.082,491.076,416.678z"/>
</g>
<g>
	<g>
		<path fill="#E40712" d="M103.423,331.065c0.662,0,1.347,0.016,2.011,0.044c16.435,0.939,22.267,12.438,22.267,22.001
			c0,5.324-2.49,12.164-6.083,17.023c-0.251-0.223-0.508-0.451-0.77-0.683c-2.505-2.217-5.559-4.921-7.79-7.896
			c3.026-5.293,3.415-12.035,0.864-16.851c-2.042-3.856-5.622-5.98-10.078-5.98c-3.566,0-6.894,1.683-9.132,4.618
			c-2.454,3.218-3.251,7.487-2.22,11.786c-0.541,2.229-0.975,5.079-0.997,7.88c-4.083-2.979-5.708-6.483-6.805-9.891l-1.501-4.666
			l-2.191,4.385c-1.004,2.009-1.712,4.109-2.112,6.21c-0.198-0.832-0.356-1.731-0.453-2.697c-0.9-10.646,4.27-16.16,5.966-17.968
			C89.104,333.39,95.149,331.065,103.423,331.065 M97.163,359.923c2.314,4.96,6.882,9.039,11.067,12.775
			c3.014,2.69,5.896,5.263,7.632,7.841c-0.81-0.636-1.758-1.226-2.861-1.704l-3.881-1.683l1.163,4.067
			c0.578,2.02,1.425,4.983,3.796,6.614c-0.533-0.037-1.11-0.055-1.731-0.055c-3.925,0-8.898,0.779-11.824,1.852l0.832,3.701
			c-1.53-0.802-3.36-1.243-5.375-1.243c-0.355,0-0.71,0.014-1.062,0.043c1.448-1.596,3.155-2.849,4.56-3.411l4.547-1.818
			l-4.52-1.885c-0.404-0.168-0.816-0.322-1.237-0.465c2.05-0.675,4.246-1.14,5.788-1.14c0.193,0,0.371,0.008,0.529,0.022
			l0.605-3.947c-1.163-0.247-2.479-0.372-3.909-0.372c-5.152,0-12.595,1.691-16.616,6.458l-2.775,3.29h3.039
			c-1.977,1.01-3.886,2.173-5.537,3.321c0.161-1.32,0.145-2.595-0.295-3.827l-0.019-0.052l-0.021-0.051
			c-1.054-2.506-3.171-3.965-6.306-4.354c0.935-0.523,1.88-1.023,2.788-1.503c3.699-1.956,6.372-3.369,6.999-5.499l0.032-0.107
			l0.019-0.11c0.343-1.937-0.804-3.995-2.416-5.735c2.001,0.25,2.981,0.597,2.987,0.599l6.459,2.46l-4.147-5.53
			c-0.526-0.701-0.918-1.608-1.162-2.614c2.39,2.261,5.345,3.932,8.078,5.477c3.732,2.109,7.257,4.102,8.54,7.035l3.812-1.083
			c-0.499-3.497-3.27-7.226-7.293-9.863C96.819,365.375,96.817,362.503,97.163,359.923 M105.669,362.498
			c0.289,0.493,0.6,0.977,0.928,1.451c-0.259-0.263-0.504-0.521-0.732-0.776C105.784,362.963,105.719,362.737,105.669,362.498
			 M118.216,375.868c4.456,4.366,6.516,8.781,5.806,12.476l-0.331,1.721l1.663,0.554c1.583,0.527,1.479,1.26,1.439,1.536
			l-0.42,2.943l2.885-0.721c0.487-0.122,0.96-0.314,1.412-0.557c-0.524,2.08-1.492,3.984-2.676,5.467
			c-0.229-0.795-0.611-1.607-1.22-2.37l-0.021-0.027l-0.022-0.025c-1.767-2.061-5.219-2.694-7.382-2.886
			c0.403-1.249,0.541-2.649-0.107-3.863c-0.22-0.427-0.531-0.792-0.941-1.097h2.689l-0.84-2.612
			c-0.042-0.129-0.67-2.022-2.365-4.016l3.009-1.011C120.243,379.381,119.334,377.552,118.216,375.868 M160.699,378.336
			c0.058,0.404,0.192,0.795,0.399,1.158l0.034,0.06l0.038,0.057c0.206,0.309,0.599,0.758,1.256,1.022
			c-1.987,0.191-4.053,0.619-6.131,1.248c0.289-0.239,0.587-0.491,0.897-0.753C158.268,380.22,159.443,379.229,160.699,378.336
			 M174.445,378.645c5.324,0,10.1,2.25,13.553,4.687c-5.027,0.321-10.924,2.011-14.221,4.053c-2.182-1.249-4.871-1.925-7.726-1.925
			c-5.288,0-10.231,2.239-13.544,6.121c-5.889,6.693-9.657,13.941-11.37,17.64c-1.825-1.445-3.241-2.552-3.89-3.057
			c-0.58-0.434-1.133-0.782-1.666-1.072c4.966-6.457,16.975-19.811,31.669-20.41l0.201-3.979c-0.643-0.092-1.316-0.15-2.009-0.173
			c0.406-0.117,0.84-0.26,1.311-0.415C168.641,379.495,171.226,378.645,174.445,378.645 M149.043,382.605
			c0.236,0.605,0.673,1.089,1.262,1.391c0.083,0.043,0.167,0.082,0.252,0.117c-1.898,0.904-3.751,1.955-5.505,3.124
			C146.216,385.634,147.56,384.048,149.043,382.605 M73.434,392.734c-0.039,0.203-0.083,0.422-0.131,0.662
			c-0.402,2.001-0.953,4.743-1.03,8.913l-0.12,6.441l3.746-5.241c1.358-1.9,6.083-5.553,10.498-8.179
			c-0.438,1.594-0.655,3.309-0.655,5.16v5.259l3.495-3.93c0.029-0.033,2.822-3.073,6.164-3.469
			c-9.181,10.539-9.638,21.493-6.759,28.576c2.725,6.705,8.467,10.708,15.359,10.708c8.376,0,16.477-8.072,20.75-14.568
			c2.858,2.486,6.36,5.474,7.921,6.803c-8,15.651-19.306,23.583-33.626,23.583c-8.297,0-14.364-3.54-17.248-5.654
			c-1.52-1.105-2.771-2.354-3.718-3.709l-0.048-0.068l-0.054-0.065c-0.38-0.456-0.722-0.874-1.064-1.292
			c-0.346-0.422-0.691-0.844-1.074-1.303c-0.885-1.164-1.877-1.754-2.951-1.754c-1.001,0-1.901,0.533-2.477,1.467
			c-0.125,0.196-0.228,0.41-0.31,0.637c-8.377-12.395-3.907-27.358-2.796-30.562l0.04-0.117c0.426-1.281,0.881-3.14-0.087-4.482
			c-0.501-0.693-1.288-1.093-2.158-1.093c-0.197,0-0.395,0.02-0.592,0.059C66.537,399.565,70.715,395.135,73.434,392.734
			 M101.995,393.478c0.898,0,2.06,0.104,3.1,0.248c-0.262,0.705-0.493,1.483-0.638,2.271c-0.729-1.019-1.687-1.868-2.821-2.511
			C101.744,393.48,101.864,393.478,101.995,393.478 M116.03,400.292c0.915,0.198,1.747,0.27,2.511,0.335
			c1.047,0.088,1.886,0.16,2.741,0.526c0.599,0.46,0.776,1.32,1.007,2.65c0.254,1.465,0.542,3.125,1.88,4.353l0.084,0.077
			l0.093,0.066c1.149,0.835,2.561,0.888,4.054,0.943c1.846,0.068,3.754,0.141,5.439,1.606c2.603,2.167,7.371,6.054,11.203,9.175
			c1.647,1.342,3.112,2.535,4.152,3.387c1.942,1.562,4.092,2.39,6.216,2.39c2.652,0,5.059-1.259,6.603-3.453
			c0.531-0.755,0.928-1.573,1.187-2.43c0.813,1.422,1.303,3.116,1.376,4.919c0.121,2.927-0.896,5.42-2.718,6.67l-3.699,2.537
			l4.36,1.056c0.99,0.24,2.079,0.361,3.237,0.361c6.534,0,13.478-3.737,13.478-10.664c0-2.068-0.69-3.912-1.739-5.446
			c5.983,1.93,10.264,6.957,10.279,12.846c-0.268,7.548-7.493,13.683-16.124,13.683c-0.785,0-1.582-0.052-2.368-0.152l-6.101-0.784
			l4.473,4.223c1.923,1.815,5.208,3.24,8.45,3.768c-2.746,1.476-6.45,2.653-10.252,2.653c-1.466,0-2.886-0.175-4.204-0.516
			c-7.627-2.044-11.058-9.336-11.058-13.86v-4.827l-3.414,3.413c-2.229,2.229-3.41,5.227-3.326,8.438
			c0.009,0.36,0.035,0.72,0.075,1.073c-1.276-1.443-2.303-3.312-2.645-5.596c-0.208-1.453-0.091-3.047,0.034-4.734
			c0.293-3.982,0.658-8.938-3.911-13.021c-3.228-3.069-8.429-7.104-12.048-9.861c-4.188-3.258-4.372-5.717-4.549-8.096
			c-0.089-1.191-0.181-2.424-0.772-3.607l-0.012-0.022l-0.013-0.023c-0.925-1.734-2.485-2.92-3.861-3.965
			C116.109,400.352,116.069,400.322,116.03,400.292 M106.031,401.164c0.321,0.188,0.664,0.323,1.022,0.398
			c-0.083,0.669-0.114,1.322-0.067,1.934l-1.663,1.164C105.743,403.605,106.015,402.427,106.031,401.164 M107.983,406.062
			c0.262,0.28,0.625,0.579,1.116,0.814c-0.513,0.408-1.082,0.784-1.684,1.121c0.088-0.219,0.16-0.432,0.216-0.637L107.983,406.062
			 M170.021,420.806c1.245,0.558,3.044,1.999,3.044,3.835c0,1.879-1.37,2.993-2.858,3.649c0.233-1.169,0.355-2.401,0.355-3.649
			C170.563,423.288,170.344,421.986,170.021,420.806 M103.423,329.065c-9.354,0-15.724,2.899-20.479,7.944
			c-2.323,2.477-7.433,8.516-6.503,19.508c0.73,7.311,4.5,11.031,4.657,11.031c0.009,0,0.006-0.013-0.011-0.039
			c-1.395-4.954-0.156-10.063,1.701-13.78c1.395,4.335,3.718,9.29,10.994,13.006c-0.62-3.406-0.155-8.051,0.775-11.613
			c-2.168-7.896,2.941-14.399,9.288-14.399c10.064,0,12.387,12.697,6.813,20.902c2.787,4.181,7.122,7.742,10.219,10.528
			c0.154,0.156,0.619,0.62,0.928,0.93c4.646-5.264,7.896-13.625,7.896-19.974c0-11.921-7.896-23.069-24.152-23.998
			C104.822,329.081,104.115,329.065,103.423,329.065L103.423,329.065z M97.651,352.646c-2.323,2.322-3.716,11.457-1.858,16.102
			c3.562,2.168,6.504,5.574,6.968,8.825c-3.25-7.431-16.567-8.825-20.283-17.65c-0.928,3.252-0.464,7.277,1.395,9.754
			c0,0-2.57-0.979-8.034-0.979c-0.683,0-1.411,0.016-2.185,0.05c2.478,0.774,7.432,4.955,6.967,7.586
			c-0.775,2.632-10.219,5.419-14.863,10.063c2.033-0.406,3.75-0.602,5.192-0.602c3.501,0,5.387,1.151,6.264,3.235
			c0.774,2.167-0.309,4.955-0.773,8.206c2.323-2.632,10.219-7.896,16.102-9.134c-1.393-0.465-4.955-1.239-6.348-1.239
			c3.344-3.964,9.958-5.748,15.087-5.748c1.282,0,2.471,0.112,3.494,0.329c-0.225-0.021-0.465-0.032-0.719-0.032
			c-3.414,0-9.218,1.874-11.668,3.747c2.323,0.465,4.491,0.929,6.348,1.704c-3.098,1.239-6.967,4.954-8.362,8.825
			c1.496-1.035,3.547-1.6,5.606-1.6c3.484,0,6.989,1.618,7.864,5.316c0.931,4.024-1.856,7.432-3.25,8.206
			c0.32,0.08,0.743,0.117,1.213,0.117c1.352,0,3.093-0.317,3.896-0.893c-0.464,1.703-2.787,4.49-4.491,4.955
			c4.182,0,10.219-2.786,11.923-6.812c0,0-0.947,0.334-1.938,0.334c-0.662,0-1.344-0.147-1.777-0.645
			c-1.239-1.238,0.465-6.348,0.465-6.348s-1.031,1.312-2.145,1.312c-0.318,0-0.643-0.106-0.953-0.383
			c-1.393-1.395,0.465-6.039,1.239-6.968c-1.207-0.402-4.155-0.804-6.031-0.804c-0.291,0-0.555,0.009-0.783,0.03
			c2.721-0.998,7.458-1.729,11.136-1.729c2.602,0,4.673,0.366,5.122,1.265c0.93,1.704-1.393,4.955-1.393,4.955
			c0.385-0.064,0.923-0.102,1.55-0.102c2.4,0,6.112,0.551,7.585,2.27c1.857,2.323,0.774,5.418,0.774,5.418
			c4.18-2.166,7.896-8.67,6.967-15.172c-0.466,1.393-2.323,3.562-4.18,4.025c0.309-2.167-1.394-3.251-2.787-3.715
			c0.773-4.025-0.93-9.135-6.813-14.709c-4.955-4.954-14.243-11.457-13.779-19.972c-1.394,1.858-2.633,7.277-1.239,10.218
			c4.025,4.646,12.54,9.754,14.708,17.65C115.148,372.619,97.033,365.343,97.651,352.646L97.651,352.646z M118.244,387.018
			c-4.027,0-5.109-3.097-6.039-6.348C116.85,382.683,118.244,387.018,118.244,387.018L118.244,387.018z M167.479,373.548
			c-7.418,0.292-13.196,8.781-15.794,8.781c-0.167,0-0.322-0.035-0.462-0.11c-1.548-0.775,2.166-5.419,2.166-5.419
			c-7.431,4.181-13.47,13.316-14.863,18.889c6.202-7.612,17.665-13.17,26.212-13.17c0.841,0,1.654,0.054,2.431,0.165
			c-15.174,0.619-28.179,14.089-34.681,23.224c1.237,0.464,2.321,0.929,3.56,1.856c1.394,1.084,3.562,2.787,5.884,4.646
			c1.084-2.787,5.264-11.769,12.077-19.508c3.196-3.745,7.793-5.442,12.042-5.442c2.956,0,5.743,0.821,7.775,2.345
			c2.583-2.215,9.963-4.529,15.836-4.528c1.515,0,2.93,0.154,4.136,0.503c-3.562-4.025-10.992-9.135-19.354-9.135
			c-5.482,0-9.18,2.205-10.833,2.205c-0.354,0-0.614-0.101-0.778-0.347C161.596,376.335,167.479,373.548,167.479,373.548
			L167.479,373.548z M74.891,389.031c0,0-12.229,8.051-13.47,21.366c0,0,1.704-2.323,3.098-2.787c0.2-0.101,0.4-0.156,0.581-0.156
			c0.662,0,1.076,0.756,0.348,2.943c-0.311,0.929-8.361,22.76,7.431,37.622c0,0-1.703-4.488-0.774-5.884
			c0.206-0.342,0.471-0.532,0.784-0.532c0.396,0,0.866,0.307,1.384,0.997c0.775,0.931,1.394,1.702,2.168,2.633
			c1.083,1.549,2.478,2.94,4.18,4.181c4.644,3.405,11.148,6.037,18.424,6.037c19.973,0,30.501-14.553,36.074-26.011
			c-0.31-0.311-0.464-0.466-0.773-0.773c-3.096-2.633-7.433-6.347-10.064-8.67c-3.56,6.348-11.922,15.638-20.282,15.638
			c-14.863,0-22.295-21.367-4.644-38.553c-0.931-0.464-2.014-0.773-3.252-0.773c-4.644,0-8.362,4.181-8.362,4.181
			c0-4.491,1.396-7.433,3.098-9.6c-5.11,1.858-14.245,8.207-16.568,11.457c0.155-8.36,2.323-10.837,0.93-13.005L74.891,389.031
			L74.891,389.031z M111.585,392.902c-0.928,1.703-1.082,4.643,0.775,6.812c1.703,2.015,4.646,3.25,5.884,5.573
			c1.394,2.787-1.084,6.969,5.883,12.388c3.252,2.479,8.671,6.657,11.921,9.754c5.574,4.954,2.478,11.147,3.252,16.566
			c0.928,6.192,6.038,9.754,9.29,10.683c-3.098-2.787-4.18-9.29,0-13.469c0,5.263,3.871,13.469,12.541,15.792
			c1.565,0.405,3.153,0.584,4.721,0.584c7.428,0,14.391-4.019,16.18-7.087c-0.909,0.454-2.06,0.655-3.313,0.655
			c-3.441,0-7.649-1.516-9.692-3.443c0.884,0.114,1.759,0.169,2.623,0.169c9.719,0,17.84-6.978,18.124-15.649
			c0-8.753-7.97-15.721-17.697-15.72c-0.597,0-1.202,0.026-1.812,0.08c2.787,0.466,6.968,3.717,6.968,8.208
			c0,5.958-6.396,8.664-11.478,8.664c-0.991,0-1.933-0.103-2.767-0.305c5.419-3.717,4.644-14.4-1.858-18.115
			c1.587,4.421-1.475,8.76-5.721,8.76c-1.552,0-3.263-0.579-4.962-1.946c-3.405-2.787-11.612-9.444-15.329-12.54
			c-3.56-3.099-7.896-1.396-9.599-2.632c-1.857-1.704-0.619-5.575-3.251-7.278c-2.323-1.084-4.336-0.463-6.966-1.394
			C112.98,397.082,111.276,395.225,111.585,392.902L111.585,392.902z M166.86,418.139c0.928,1.858,1.703,4.183,1.703,6.502
			c0,2.323-0.464,4.646-1.394,6.504c3.716-0.465,7.896-2.322,7.896-6.504c0-3.405-3.562-5.728-5.419-6.039L166.86,418.139
			L166.86,418.139z"/>
	</g>
</g>
<path fill="#E40712" d="M303.357,367.993c0.335-0.335,5.626-2.067,5.626-2.067h-29.021c0,0,5.291,1.732,5.626,2.067
	s0.503,0.765,0.503,1.285v43.437c0,0.521,0.189,7.588-0.107,8.188c-0.296,0.6-6.022,3.806-6.022,3.806h29.021
	c0,0-5.569-2.855-5.925-3.806s-0.205-8.961-0.205-9.482v-42.142C302.854,368.758,303.021,368.329,303.357,367.993z"/>
<path fill="#E40712" d="M359.219,424.932h29.245c0,0-5.829-2.688-6.723-4.028l-12.705-17.874c4.618-1.267,8.438-3.354,11.455-6.258
	c3.017-2.906,4.524-6.93,4.524-12.07c0-6.332-1.862-11.007-5.588-14.025c-3.727-3.017-9.722-4.526-17.992-4.526h-25.579
	c-9.48,0-13.8-0.415-17.179-1.072c-2.814-0.751-5.35-2.253-5.35-2.253l-0.751-0.469l0.188,0.845c0,0.282,0.751,6.665,8.354,12.296
	c1.408,1.126,2.533,2.159,2.533,5.82l0.011-0.013c0,15.363,0,36.517,0,36.518c0,0.705,0.147,2.312-0.277,3.082
	c-0.425,0.77-5.313,3.854-5.852,4.028h29.021c0,0-5.556-2.886-5.826-4.028c-0.27-1.144-0.303-18.099-0.303-18.099h10.951
	c0.224,0.374,13,17.956,13,18.104C364.379,422.177,359.219,424.932,359.219,424.932z M359.201,390.958h-18.773v-12.293h18.773
	c3.276,0,5.532,0.615,6.762,1.844s1.844,2.665,1.844,4.302c0,1.64-0.614,3.073-1.844,4.303
	C364.733,390.344,362.479,390.958,359.201,390.958z"/>
<g>
	<path fill="#E40712" d="M265.866,410.404c-1.453-3.576-2.961-7.246-4.526-11.008c-1.565-3.763-3.073-7.451-4.526-11.064
		c-1.453-3.612-2.738-6.854-3.855-9.722c-1.117-2.867-2.031-5.197-2.738-6.985c-0.709-1.788-1.062-2.755-1.062-2.905
		c0-0.596,0.185-0.968,0.559-1.118c0.372-0.148,4.453-1.676,4.453-1.676h-21.385l0.003-0.004c-9.48,0-13.799-0.188-17.178-0.845
		c-2.815-0.751-5.35-2.253-5.35-2.253l-0.751-0.469l0.188,0.845c0,0.282,0.751,6.665,8.354,12.296
		c1.024,0.819,1.896,1.594,2.297,3.361c-0.673,1.782-1.404,3.704-2.202,5.788c-1.156,3.017-2.33,6.11-3.521,9.275
		c-1.192,3.168-2.385,6.277-3.576,9.332c-1.193,3.055-2.273,5.83-3.241,8.325c-0.969,2.497-3.379,8.989-3.751,9.325
		c-0.596,0.532-4.785,3.433-5.619,3.806h25.78c0,0-4.296-2.789-4.307-3.806c-0.011-1.018,0.636-2.75,1.083-4.019
		c0.447-1.266,1.042-2.905,1.788-4.916h26.485c0.074,0.373,0.316,1.08,0.727,2.123c0.409,1.044,2.579,6.229,2.65,6.812
		s-4.7,3.806-4.7,3.806h28.015c0,0-5.181-3.208-5.649-3.849C269.843,420.218,267.318,413.979,265.866,410.404z M225.579,403.027
		l9.946-26.597l10.84,26.597H225.579L225.579,403.027z"/>
</g>
</svg>
